# xmcd CD database file
#
# Track frame offsets:
#	153
#	18841
#	31223
#	57558
#	85792
#	117505
#	152318
#	187698
#	220392
#	260119
#
# Disc length: 3828 seconds
#
# Revision: 0
# Processed by: cddbd v1.5PL3 Copyright (c) Steve Scherf et al.
# Submitted via: CDex 1.51
#
DISCID=7d0ef20a
DTITLE=Stoney Curtis Band - Alive and Unleashed [CD2]
DYEAR=2001
DGENRE=Blues
TTITLE0=My Saviour
TTITLE1=Waitin' for the Bus
TTITLE2=Jesus Just Left Chicago
TTITLE3=On Fire
TTITLE4=Wonderful Tonight
TTITLE5=In a Day
TTITLE6=Last Train to Chicago
TTITLE7=All Along the Watchtower
TTITLE8=When My Heart Beats Like a Hammer
TTITLE9=Precious Lady
EXTD=YEAR: 2001
EXTT0=
EXTT1=
EXTT2=
EXTT3=
EXTT4=
EXTT5=
EXTT6=
EXTT7=
EXTT8=
EXTT9=
PLAYORDER=
